<?xml version="1.0" encoding="utf-8"?>
<!-- Generator: Adobe Illustrator 21.0.0, SVG Export Plug-In . SVG Version: 6.00 Build 0)  -->
<svg version="1.1" id="Layer_1" xmlns="http://www.w3.org/2000/svg" xmlns:xlink="http://www.w3.org/1999/xlink" x="0px" y="0px"
	 viewBox="0 0 48 48" style="enable-background:new 0 0 48 48;" xml:space="preserve">
<style type="text/css">
	.st0{fill:#CCCCCC;}
	.st1{fill:#666666;}
</style>
<g transform="translate(-18.24,-18.24) scale(1.19,1.19)">
	<g>
		<g id="Layer_1_1_">
			<g id="surface1">
				<path class="st0" d="M35.5,25.6l-15,25.5c0,0,4.7,4.6,15,4.6s15-4.6,15-4.6L35.5,25.6z"/>
				<path class="st0" d="M35.5,19.1L24,38.4c0,0,2,3.5,11.5,3.5S47,38.4,47,38.4L35.5,19.1z"/>
				<path class="st0" d="M35.5,15.3l-8.1,11.5c0,0,1.6,2.3,8.1,2.3s8.1-2.3,8.1-2.3L35.5,15.3z"/>
				<path class="st1" d="M45.4,42.4l-1.2-2c-1.7,0.7-4.5,1.4-8.8,1.4s-7-0.7-8.8-1.4l-1.2,2c2.1,0.9,5.2,1.7,9.9,1.7
					S43.3,43.3,45.4,42.4z"/>
				<path class="st1" d="M42.2,30.4l-1.2-2c-1.3,0.3-3,0.7-5.5,0.7c-2.5,0-4.3-0.3-5.5-0.8l-1.2,2c1.5,0.6,3.7,1,6.7,1
					S40.7,31,42.2,30.4z"/>
			</g>
		</g>
	</g>
</g>
</svg>
